<?xml version="1.0" encoding="UTF-8" standalone="no"?>
<!DOCTYPE svg PUBLIC "-//W3C//DTD SVG 1.1//EN"
 "http://www.w3.org/Graphics/SVG/1.1/DTD/svg11.dtd">
<!-- Generated by graphviz version 12.2.1 (20241206.2353)
 -->
<!-- Title: G Pages: 1 -->
<svg width="744pt" height="725pt"
 viewBox="0.00 0.00 743.87 725.00" xmlns="http://www.w3.org/2000/svg" xmlns:xlink="http://www.w3.org/1999/xlink">
<g id="graph0" class="graph" transform="scale(1 1) rotate(0) translate(4 721)">
<title>G</title>
<g id="clust1" class="cluster">
<title>cluster_family_0</title>
<polygon fill="#0000ff" fill-opacity="0.501961" stroke="#f4f4f4" points="8,-498 8,-709 461,-709 461,-498 8,-498"/>
<text text-anchor="start" x="16" y="-690.8" font-family="Helvetica, Arial, sans-serif" font-weight="bold" font-size="16.00" fill="#ffffff">Pritchett</text>
</g>
<g id="clust2" class="cluster">
<title>cluster_family_0_0</title>
</g>
<g id="clust5" class="cluster">
<title>cluster_family_0_1</title>
</g>
<g id="clust8" class="cluster">
<title>cluster_family_1</title>
<polygon fill="#0000ff" fill-opacity="0.501961" stroke="#f4f4f4" points="276.25,-279 276.25,-490 727.87,-490 727.87,-279 276.25,-279"/>
<text text-anchor="start" x="284.25" y="-471.8" font-family="Helvetica, Arial, sans-serif" font-weight="bold" font-size="16.00" fill="#ffffff">Dunphy</text>
</g>
<g id="clust9" class="cluster">
<title>cluster_family_1_0</title>
</g>
<g id="clust12" class="cluster">
<title>cluster_family_2</title>
<polygon fill="#0000ff" fill-opacity="0.501961" stroke="#f4f4f4" points="276.25,-121 276.25,-271 727.87,-271 727.87,-121 276.25,-121"/>
<text text-anchor="start" x="284.25" y="-252.8" font-family="Helvetica, Arial, sans-serif" font-weight="bold" font-size="16.00" fill="#ffffff">Tucker</text>
</g>
<g id="clust13" class="cluster">
<title>cluster_family_2_0</title>
</g>
<g id="clust16" class="cluster">
<title>cluster_family_3</title>
</g>
<g id="clust19" class="cluster">
<title>cluster_family_4</title>
</g>
<g id="clust22" class="cluster">
<title>cluster_family_5</title>
</g>
<!-- union_0_0 -->
<g id="node1" class="node">
<title>union_0_0</title>
<ellipse fill="#1abc9c" stroke="white" cx="217.08" cy="-561" rx="3.96" ry="3.96"/>
</g>
<!-- siblings_0_0 -->
<g id="node4" class="node">
<title>siblings_0_0</title>
<polygon fill="#1abc9c" stroke="#ffffff" stroke-width="0" points="250.04,-561 255.44,-557.4 255.44,-564.6 250.04,-561"/>
</g>
<!-- union_0_0&#45;&gt;siblings_0_0 -->
<g id="edge3" class="edge">
<title>union_0_0&#45;&gt;siblings_0_0</title>
<path fill="none" stroke="#1abc9c" d="M221.28,-561C228.63,-561 243.7,-561 250.36,-561"/>
</g>
<!-- Jay -->
<g id="node2" class="node">
<title>Jay</title>
<g id="a_node2"><a xlink:href="https://modernfamily.fandom.com/wiki/Jay_Pritchett" xlink:title="&lt;TABLE&gt;">
<polygon fill="#016d3e" stroke="#ffffff" points="183,-551.5 18.25,-551.5 18.25,-508.5 183,-508.5 183,-551.5"/>
<image xlink:href="pics/jay.png" width="38.8421px" height="41px" preserveAspectRatio="xMinYMin meet" x="19.8289" y="-550.5"/>
<text text-anchor="start" x="108.75" y="-537.2" font-family="Helvetica, Arial, sans-serif" font-size="14.00" fill="#ffffff"> Jay</text>
<text text-anchor="start" x="99.38" y="-523.1" font-family="Helvetica, Arial, sans-serif" font-size="12.00" fill="#666666">Pritchett</text>
<text text-anchor="start" x="60.25" y="-511.25" font-family="Helvetica, Arial, sans-serif" font-size="10.00" fill="#aa7777"> * 1947&#45;05&#45;23 </text>
<text text-anchor="start" x="122" y="-511.25" font-family="Helvetica, Arial, sans-serif" font-size="10.00" fill="#aa7777"> &#160;</text>
</a>
</g>
</g>
<!-- Jay&#45;&gt;union_0_0 -->
<g id="edge1" class="edge">
<title>Jay&#45;&gt;union_0_0</title>
<path fill="none" stroke="#1abc9c" d="M183.39,-545C203.26,-545 218.87,-545 218.87,-545 218.87,-545 218.87,-552.22 218.87,-556.96"/>
</g>
<!-- union_3 -->
<g id="node22" class="node">
<title>union_3</title>
<ellipse fill="#9b59b6" stroke="white" cx="217.08" cy="-404" rx="3.96" ry="3.96"/>
<text text-anchor="middle" x="208.25" y="-391.49" font-family="Helvetica, Arial, sans-serif" font-size="9.00" fill="#660000">⚮</text>
</g>
<!-- Jay&#45;&gt;union_3 -->
<g id="edge19" class="edge">
<title>Jay&#45;&gt;union_3</title>
<path fill="none" stroke="#9b59b6" d="M183.46,-523.5C201.78,-523.5 215.87,-523.5 215.87,-523.5 215.87,-523.5 215.87,-429.54 215.87,-408.25"/>
</g>
<!-- Gloria -->
<g id="node3" class="node">
<title>Gloria</title>
<g id="a_node3"><a xlink:href="https://modernfamily.fandom.com/wiki/Gloria_Pritchett" xlink:title="&lt;TABLE&gt;">
<polygon fill="#016d3e" stroke="#ffffff" points="183.25,-612.5 18,-612.5 18,-569.5 183.25,-569.5 183.25,-612.5"/>
<image xlink:href="pics/gloria.png" width="38.8421px" height="41px" preserveAspectRatio="xMinYMin meet" x="19.5789" y="-611.5"/>
<text text-anchor="start" x="100.88" y="-598.2" font-family="Helvetica, Arial, sans-serif" font-size="14.00" fill="#ffffff"> Gloria</text>
<text text-anchor="start" x="60" y="-584.1" font-family="Helvetica, Arial, sans-serif" font-size="12.00" fill="#666666">Pritchett (neé Ramírez)</text>
<text text-anchor="start" x="60" y="-572.25" font-family="Helvetica, Arial, sans-serif" font-size="10.00" fill="#aa7777"> * 1971&#45;09&#45;24 </text>
<text text-anchor="start" x="122" y="-572.25" font-family="Helvetica, Arial, sans-serif" font-size="10.00" fill="#aa7777"> &#160;</text>
</a>
</g>
</g>
<!-- Gloria&#45;&gt;union_0_0 -->
<g id="edge2" class="edge">
<title>Gloria&#45;&gt;union_0_0</title>
<path fill="none" stroke="#1abc9c" d="M183.71,-575.5C203.43,-575.5 218.87,-575.5 218.87,-575.5 218.87,-575.5 218.87,-569.26 218.87,-564.96"/>
</g>
<!-- union_0_1 -->
<g id="node6" class="node">
<title>union_0_1</title>
<ellipse fill="#2ecc71" stroke="white" cx="217.08" cy="-652" rx="3.96" ry="3.96"/>
<text text-anchor="middle" x="208.25" y="-639.49" font-family="Helvetica, Arial, sans-serif" font-size="9.00" fill="#660000">⚮</text>
</g>
<!-- Gloria&#45;&gt;union_0_1 -->
<g id="edge5" class="edge">
<title>Gloria&#45;&gt;union_0_1</title>
<path fill="none" stroke="#2ecc71" d="M183.46,-597C201.78,-597 215.87,-597 215.87,-597 215.87,-597 215.87,-635.43 215.87,-648.04"/>
</g>
<!-- Joe -->
<g id="node5" class="node">
<title>Joe</title>
<g id="a_node5"><a xlink:href="https://modernfamily.fandom.com/wiki/Joe_Pritchett" xlink:title="&lt;TABLE&gt;">
<polygon fill="#016d3e" stroke="#ffffff" points="451,-581.5 286.25,-581.5 286.25,-538.5 451,-538.5 451,-581.5"/>
<image xlink:href="pics/joe.png" width="38.8421px" height="41px" preserveAspectRatio="xMinYMin meet" x="287.824" y="-580.5"/>
<text text-anchor="start" x="376.37" y="-567.2" font-family="Helvetica, Arial, sans-serif" font-size="14.00" fill="#ffffff"> Joe</text>
<text text-anchor="start" x="367.37" y="-553.1" font-family="Helvetica, Arial, sans-serif" font-size="12.00" fill="#666666">Pritchett</text>
<text text-anchor="start" x="328.25" y="-541.25" font-family="Helvetica, Arial, sans-serif" font-size="10.00" fill="#aa7777"> * 2013&#45;01&#45;20 </text>
<text text-anchor="start" x="390" y="-541.25" font-family="Helvetica, Arial, sans-serif" font-size="10.00" fill="#aa7777"> &#160;</text>
</a>
</g>
</g>
<!-- siblings_0_0&#45;&gt;Joe -->
<g id="edge4" class="edge">
<title>siblings_0_0:se&#45;&gt;Joe</title>
<path fill="none" stroke="#1abc9c" d="M255.41,-561C255.41,-561 275.75,-561 275.75,-561"/>
<polygon fill="#1abc9c" stroke="#1abc9c" points="283.75,-551 283.75,-571 279.75,-571 279.75,-551 283.75,-551"/>
<polyline fill="none" stroke="#1abc9c" points="285.75,-561 275.75,-561"/>
</g>
<!-- siblings_0_1 -->
<g id="node8" class="node">
<title>siblings_0_1</title>
<polygon fill="#2ecc71" stroke="#ffffff" stroke-width="0" points="250.04,-652 255.44,-648.4 255.44,-655.6 250.04,-652"/>
</g>
<!-- union_0_1&#45;&gt;siblings_0_1 -->
<g id="edge7" class="edge">
<title>union_0_1&#45;&gt;siblings_0_1</title>
<path fill="none" stroke="#2ecc71" d="M221.28,-652C228.63,-652 243.7,-652 250.36,-652"/>
</g>
<!-- Javier -->
<g id="node7" class="node">
<title>Javier</title>
<g id="a_node7"><a xlink:href="https://modernfamily.fandom.com/wiki/Javier_Delgado" xlink:title="&lt;TABLE&gt;">
<polygon fill="#016d3e" stroke="#ffffff" points="182.62,-673.5 18.62,-673.5 18.62,-630.5 182.62,-630.5 182.62,-673.5"/>
<image xlink:href="pics/javier.png" width="38.8421px" height="41px" preserveAspectRatio="xMinYMin meet" x="20.2039" y="-672.5"/>
<text text-anchor="start" x="101.25" y="-659.2" font-family="Helvetica, Arial, sans-serif" font-size="14.00" fill="#ffffff"> Javier</text>
<text text-anchor="start" x="98.25" y="-645.1" font-family="Helvetica, Arial, sans-serif" font-size="12.00" fill="#666666">Delgado</text>
<text text-anchor="start" x="60.62" y="-633.25" font-family="Helvetica, Arial, sans-serif" font-size="10.00" fill="#aa7777"> * 1969 </text>
<text text-anchor="start" x="121.62" y="-633.25" font-family="Helvetica, Arial, sans-serif" font-size="10.00" fill="#aa7777"> &#160;</text>
</a>
</g>
</g>
<!-- Javier&#45;&gt;union_0_1 -->
<g id="edge6" class="edge">
<title>Javier&#45;&gt;union_0_1</title>
<path fill="none" stroke="#2ecc71" d="M183.09,-652C195.93,-652 206.86,-652 212.66,-652"/>
</g>
<!-- Manny -->
<g id="node9" class="node">
<title>Manny</title>
<g id="a_node9"><a xlink:href="https://modernfamily.fandom.com/wiki/Manny_Delgado" xlink:title="&lt;TABLE&gt;">
<polygon fill="#016d3e" stroke="#ffffff" points="451,-673.5 286.25,-673.5 286.25,-630.5 451,-630.5 451,-673.5"/>
<image xlink:href="pics/manny.png" width="38.8421px" height="41px" preserveAspectRatio="xMinYMin meet" x="287.824" y="-672.5"/>
<text text-anchor="start" x="366.62" y="-659.2" font-family="Helvetica, Arial, sans-serif" font-size="14.00" fill="#ffffff"> Manny</text>
<text text-anchor="start" x="366.25" y="-645.1" font-family="Helvetica, Arial, sans-serif" font-size="12.00" fill="#666666">Delgado</text>
<text text-anchor="start" x="328.25" y="-633.25" font-family="Helvetica, Arial, sans-serif" font-size="10.00" fill="#aa7777"> * 1999&#45;01&#45;19 </text>
<text text-anchor="start" x="390" y="-633.25" font-family="Helvetica, Arial, sans-serif" font-size="10.00" fill="#aa7777"> &#160;</text>
</a>
</g>
</g>
<!-- siblings_0_1&#45;&gt;Manny -->
<g id="edge8" class="edge">
<title>siblings_0_1:se&#45;&gt;Manny</title>
<path fill="none" stroke="#2ecc71" d="M255.41,-652C255.41,-652 275.75,-652 275.75,-652"/>
<polygon fill="#2ecc71" stroke="#2ecc71" points="283.75,-642 283.75,-662 279.75,-662 279.75,-642 283.75,-642"/>
<polyline fill="none" stroke="#2ecc71" points="285.75,-652 275.75,-652"/>
</g>
<!-- union_1_0 -->
<g id="node10" class="node">
<title>union_1_0</title>
<ellipse fill="#1abc9c" stroke="white" cx="483.96" cy="-373" rx="3.96" ry="3.96"/>
</g>
<!-- siblings_1_0 -->
<g id="node13" class="node">
<title>siblings_1_0</title>
<polygon fill="#1abc9c" stroke="#ffffff" stroke-width="0" points="516.91,-373 522.31,-369.4 522.31,-376.6 516.91,-373"/>
</g>
<!-- union_1_0&#45;&gt;siblings_1_0 -->
<g id="edge11" class="edge">
<title>union_1_0&#45;&gt;siblings_1_0</title>
<path fill="none" stroke="#1abc9c" d="M488.15,-373C495.5,-373 510.57,-373 517.23,-373"/>
</g>
<!-- Phil -->
<g id="node11" class="node">
<title>Phil</title>
<g id="a_node11"><a xlink:href="https://modernfamily.fandom.com/wiki/Phil_Dunphy" xlink:title="&lt;TABLE&gt;">
<polygon fill="#016d3e" stroke="#ffffff" points="451,-363.5 286.25,-363.5 286.25,-320.5 451,-320.5 451,-363.5"/>
<image xlink:href="pics/phil.png" width="38.8421px" height="41px" preserveAspectRatio="xMinYMin meet" x="287.824" y="-362.5"/>
<text text-anchor="start" x="376" y="-349.2" font-family="Helvetica, Arial, sans-serif" font-size="14.00" fill="#ffffff"> Phil</text>
<text text-anchor="start" x="368.12" y="-335.1" font-family="Helvetica, Arial, sans-serif" font-size="12.00" fill="#666666">Dunphy</text>
<text text-anchor="start" x="328.25" y="-323.25" font-family="Helvetica, Arial, sans-serif" font-size="10.00" fill="#aa7777"> * 1968&#45;04&#45;03 </text>
<text text-anchor="start" x="390" y="-323.25" font-family="Helvetica, Arial, sans-serif" font-size="10.00" fill="#aa7777"> &#160;</text>
</a>
</g>
</g>
<!-- Phil&#45;&gt;union_1_0 -->
<g id="edge9" class="edge">
<title>Phil&#45;&gt;union_1_0</title>
<path fill="none" stroke="#1abc9c" d="M451.34,-357C469.21,-357 482.87,-357 482.87,-357 482.87,-357 482.87,-364.22 482.87,-368.96"/>
</g>
<!-- Claire -->
<g id="node12" class="node">
<title>Claire</title>
<g id="a_node12"><a xlink:href="https://modernfamily.fandom.com/wiki/Claire_Dunphy" xlink:title="&lt;TABLE&gt;">
<polygon fill="#016d3e" stroke="#ffffff" points="451,-424.5 286.25,-424.5 286.25,-381.5 451,-381.5 451,-424.5"/>
<image xlink:href="pics/claire.png" width="38.8421px" height="41px" preserveAspectRatio="xMinYMin meet" x="287.824" y="-423.5"/>
<text text-anchor="start" x="369.62" y="-410.2" font-family="Helvetica, Arial, sans-serif" font-size="14.00" fill="#ffffff"> Claire</text>
<text text-anchor="start" x="329.5" y="-396.1" font-family="Helvetica, Arial, sans-serif" font-size="12.00" fill="#666666">Dunphy (neé Pritchett)</text>
<text text-anchor="start" x="328.25" y="-384.25" font-family="Helvetica, Arial, sans-serif" font-size="10.00" fill="#aa7777"> * 1970&#45;03&#45;03 </text>
<text text-anchor="start" x="390" y="-384.25" font-family="Helvetica, Arial, sans-serif" font-size="10.00" fill="#aa7777"> &#160;</text>
</a>
</g>
</g>
<!-- Claire&#45;&gt;union_1_0 -->
<g id="edge10" class="edge">
<title>Claire&#45;&gt;union_1_0</title>
<path fill="none" stroke="#1abc9c" d="M451.46,-387.5C469.78,-387.5 483.87,-387.5 483.87,-387.5 483.87,-387.5 483.87,-381.55 483.87,-377.27"/>
</g>
<!-- Alex -->
<g id="node14" class="node">
<title>Alex</title>
<g id="a_node14"><a xlink:href="https://modernfamily.fandom.com/wiki/Alex_Dunphy" xlink:title="&lt;TABLE&gt;">
<polygon fill="#016d3e" stroke="#ffffff" points="717.87,-393.5 553.12,-393.5 553.12,-350.5 717.87,-350.5 717.87,-393.5"/>
<image xlink:href="pics/alex.png" width="38.8421px" height="41px" preserveAspectRatio="xMinYMin meet" x="554.694" y="-392.5"/>
<text text-anchor="start" x="640.99" y="-379.2" font-family="Helvetica, Arial, sans-serif" font-size="14.00" fill="#ffffff"> Alex</text>
<text text-anchor="start" x="634.99" y="-365.1" font-family="Helvetica, Arial, sans-serif" font-size="12.00" fill="#666666">Dunphy</text>
<text text-anchor="start" x="595.12" y="-353.25" font-family="Helvetica, Arial, sans-serif" font-size="10.00" fill="#aa7777"> * 1997&#45;01&#45;14 </text>
<text text-anchor="start" x="656.87" y="-353.25" font-family="Helvetica, Arial, sans-serif" font-size="10.00" fill="#aa7777"> &#160;</text>
</a>
</g>
</g>
<!-- siblings_1_0&#45;&gt;Alex -->
<g id="edge12" class="edge">
<title>siblings_1_0:se&#45;&gt;Alex</title>
<path fill="none" stroke="#1abc9c" d="M522.28,-373C522.28,-373 542.62,-373 542.62,-373"/>
<polygon fill="#1abc9c" stroke="#1abc9c" points="550.62,-363 550.62,-383 546.62,-383 546.62,-363 550.62,-363"/>
<polyline fill="none" stroke="#1abc9c" points="552.62,-373 542.62,-373"/>
</g>
<!-- Luke -->
<g id="node15" class="node">
<title>Luke</title>
<g id="a_node15"><a xlink:href="https://modernfamily.fandom.com/wiki/Luke_Dunphy" xlink:title="&lt;TABLE&gt;">
<polygon fill="#016d3e" stroke="#ffffff" points="717.87,-454.5 553.12,-454.5 553.12,-411.5 717.87,-411.5 717.87,-454.5"/>
<image xlink:href="pics/luke.png" width="38.8421px" height="41px" preserveAspectRatio="xMinYMin meet" x="554.694" y="-453.5"/>
<text text-anchor="start" x="639.49" y="-440.2" font-family="Helvetica, Arial, sans-serif" font-size="14.00" fill="#ffffff"> Luke</text>
<text text-anchor="start" x="634.99" y="-426.1" font-family="Helvetica, Arial, sans-serif" font-size="12.00" fill="#666666">Dunphy</text>
<text text-anchor="start" x="595.12" y="-414.25" font-family="Helvetica, Arial, sans-serif" font-size="10.00" fill="#aa7777"> * 1998&#45;11&#45;28 </text>
<text text-anchor="start" x="656.87" y="-414.25" font-family="Helvetica, Arial, sans-serif" font-size="10.00" fill="#aa7777"> &#160;</text>
</a>
</g>
</g>
<!-- siblings_1_0&#45;&gt;Luke -->
<g id="edge13" class="edge">
<title>siblings_1_0:se&#45;&gt;Luke</title>
<path fill="none" stroke="#1abc9c" d="M520.87,-371.23C520.87,-371.23 520.87,-418 520.87,-418 520.87,-418 542.79,-418 542.79,-418"/>
<polygon fill="#1abc9c" stroke="#1abc9c" points="550.79,-408 550.79,-428 546.79,-428 546.79,-408 550.79,-408"/>
<polyline fill="none" stroke="#1abc9c" points="552.79,-418 542.79,-418"/>
</g>
<!-- Haley -->
<g id="node16" class="node">
<title>Haley</title>
<g id="a_node16"><a xlink:href="https://modernfamily.fandom.com/wiki/Haley_Marshall" xlink:title="&lt;TABLE&gt;">
<polygon fill="#016d3e" stroke="#ffffff" points="717.87,-332.5 553.12,-332.5 553.12,-289.5 717.87,-289.5 717.87,-332.5"/>
<image xlink:href="pics/haley.png" width="38.8421px" height="41px" preserveAspectRatio="xMinYMin meet" x="554.694" y="-331.5"/>
<text text-anchor="start" x="636.87" y="-318.2" font-family="Helvetica, Arial, sans-serif" font-size="14.00" fill="#ffffff"> Haley</text>
<text text-anchor="start" x="595.24" y="-304.1" font-family="Helvetica, Arial, sans-serif" font-size="12.00" fill="#666666">Marshall (neé Dunphy)</text>
<text text-anchor="start" x="595.12" y="-292.25" font-family="Helvetica, Arial, sans-serif" font-size="10.00" fill="#aa7777"> * 1993&#45;12&#45;10 </text>
<text text-anchor="start" x="656.87" y="-292.25" font-family="Helvetica, Arial, sans-serif" font-size="10.00" fill="#aa7777"> &#160;</text>
</a>
</g>
</g>
<!-- siblings_1_0&#45;&gt;Haley -->
<g id="edge14" class="edge">
<title>siblings_1_0:se&#45;&gt;Haley</title>
<path fill="none" stroke="#1abc9c" d="M520.87,-371.23C520.87,-371.23 520.87,-326.5 520.87,-326.5 520.87,-326.5 542.79,-326.5 542.79,-326.5"/>
<polygon fill="#1abc9c" stroke="#1abc9c" points="550.79,-316.5 550.79,-336.5 546.79,-336.5 546.79,-316.5 550.79,-316.5"/>
<polyline fill="none" stroke="#1abc9c" points="552.79,-326.5 542.79,-326.5"/>
</g>
<!-- union_2_0 -->
<g id="node17" class="node">
<title>union_2_0</title>
<ellipse fill="#1abc9c" stroke="white" cx="483.96" cy="-184" rx="3.96" ry="3.96"/>
</g>
<!-- siblings_2_0 -->
<g id="node20" class="node">
<title>siblings_2_0</title>
<polygon fill="#1abc9c" stroke="#ffffff" stroke-width="0" points="516.91,-184 522.31,-180.4 522.31,-187.6 516.91,-184"/>
</g>
<!-- union_2_0&#45;&gt;siblings_2_0 -->
<g id="edge17" class="edge">
<title>union_2_0&#45;&gt;siblings_2_0</title>
<path fill="none" stroke="#1abc9c" d="M488.15,-184C495.5,-184 510.57,-184 517.23,-184"/>
</g>
<!-- Cam -->
<g id="node18" class="node">
<title>Cam</title>
<g id="a_node18"><a xlink:href="https://modernfamily.fandom.com/wiki/Cameron_Tucker" xlink:title="&lt;TABLE&gt;">
<polygon fill="#016d3e" stroke="#ffffff" points="451,-174.5 286.25,-174.5 286.25,-131.5 451,-131.5 451,-174.5"/>
<image xlink:href="pics/cam.png" width="38.8421px" height="41px" preserveAspectRatio="xMinYMin meet" x="287.824" y="-173.5"/>
<text text-anchor="start" x="372.62" y="-160.2" font-family="Helvetica, Arial, sans-serif" font-size="14.00" fill="#ffffff"> Cam</text>
<text text-anchor="start" x="371.12" y="-146.1" font-family="Helvetica, Arial, sans-serif" font-size="12.00" fill="#666666">Tucker</text>
<text text-anchor="start" x="328.25" y="-134.25" font-family="Helvetica, Arial, sans-serif" font-size="10.00" fill="#aa7777"> * 1972&#45;02&#45;29 </text>
<text text-anchor="start" x="390" y="-134.25" font-family="Helvetica, Arial, sans-serif" font-size="10.00" fill="#aa7777"> &#160;</text>
</a>
</g>
</g>
<!-- Cam&#45;&gt;union_2_0 -->
<g id="edge15" class="edge">
<title>Cam&#45;&gt;union_2_0</title>
<path fill="none" stroke="#1abc9c" d="M451.46,-168C469.78,-168 483.87,-168 483.87,-168 483.87,-168 483.87,-174.89 483.87,-179.63"/>
</g>
<!-- Mitchell -->
<g id="node19" class="node">
<title>Mitchell</title>
<g id="a_node19"><a xlink:href="https://modernfamily.fandom.com/wiki/Mitchell_Pritchett" xlink:title="&lt;TABLE&gt;">
<polygon fill="#016d3e" stroke="#ffffff" points="451,-235.5 286.25,-235.5 286.25,-192.5 451,-192.5 451,-235.5"/>
<image xlink:href="pics/mitchell.png" width="38.8421px" height="41px" preserveAspectRatio="xMinYMin meet" x="287.824" y="-234.5"/>
<text text-anchor="start" x="364" y="-221.2" font-family="Helvetica, Arial, sans-serif" font-size="14.00" fill="#ffffff"> Mitchell</text>
<text text-anchor="start" x="367.37" y="-207.1" font-family="Helvetica, Arial, sans-serif" font-size="12.00" fill="#666666">Pritchett</text>
<text text-anchor="start" x="328.25" y="-195.25" font-family="Helvetica, Arial, sans-serif" font-size="10.00" fill="#aa7777"> * 1973&#45;01&#45;06 </text>
<text text-anchor="start" x="390" y="-195.25" font-family="Helvetica, Arial, sans-serif" font-size="10.00" fill="#aa7777"> &#160;</text>
</a>
</g>
</g>
<!-- Mitchell&#45;&gt;union_2_0 -->
<g id="edge16" class="edge">
<title>Mitchell&#45;&gt;union_2_0</title>
<path fill="none" stroke="#1abc9c" d="M451.24,-198.5C470.18,-198.5 484.87,-198.5 484.87,-198.5 484.87,-198.5 484.87,-192.55 484.87,-188.27"/>
</g>
<!-- Lily -->
<g id="node21" class="node">
<title>Lily</title>
<g id="a_node21"><a xlink:href="https://modernfamily.fandom.com/wiki/Lily_Tucker_Pritchett" xlink:title="&lt;TABLE&gt;">
<polygon fill="#016d3e" stroke="#ffffff" points="717.87,-204.5 553.12,-204.5 553.12,-161.5 717.87,-161.5 717.87,-204.5"/>
<image xlink:href="pics/lily.png" width="38.8421px" height="41px" preserveAspectRatio="xMinYMin meet" x="554.694" y="-203.5"/>
<text text-anchor="start" x="643.99" y="-190.2" font-family="Helvetica, Arial, sans-serif" font-size="14.00" fill="#ffffff"> Lily</text>
<text text-anchor="start" x="614.74" y="-176.1" font-family="Helvetica, Arial, sans-serif" font-size="12.00" fill="#666666">Tucker Pritchett</text>
<text text-anchor="start" x="595.12" y="-164.25" font-family="Helvetica, Arial, sans-serif" font-size="10.00" fill="#aa7777"> * 2009&#45;02&#45;16 </text>
<text text-anchor="start" x="656.87" y="-164.25" font-family="Helvetica, Arial, sans-serif" font-size="10.00" fill="#aa7777"> &#160;</text>
</a>
</g>
</g>
<!-- siblings_2_0&#45;&gt;Lily -->
<g id="edge18" class="edge">
<title>siblings_2_0:se&#45;&gt;Lily</title>
<path fill="none" stroke="#1abc9c" d="M522.28,-184C522.28,-184 542.62,-184 542.62,-184"/>
<polygon fill="#1abc9c" stroke="#1abc9c" points="550.62,-174 550.62,-194 546.62,-194 546.62,-174 550.62,-174"/>
<polyline fill="none" stroke="#1abc9c" points="552.62,-184 542.62,-184"/>
</g>
<!-- siblings_3 -->
<g id="node24" class="node">
<title>siblings_3</title>
<polygon fill="#9b59b6" stroke="#ffffff" stroke-width="0" points="250.04,-404 255.44,-400.4 255.44,-407.6 250.04,-404"/>
</g>
<!-- union_3&#45;&gt;siblings_3 -->
<g id="edge21" class="edge">
<title>union_3&#45;&gt;siblings_3</title>
<path fill="none" stroke="#9b59b6" d="M221.28,-404C228.63,-404 243.7,-404 250.36,-404"/>
</g>
<!-- Dede -->
<g id="node23" class="node">
<title>Dede</title>
<g id="a_node23"><a xlink:href="https://modernfamily.fandom.com/wiki/DeDe_Pritchett" xlink:title="&lt;TABLE&gt;">
<polygon fill="#016d3e" stroke="#ffffff" points="184.12,-425.5 17.12,-425.5 17.12,-382.5 184.12,-382.5 184.12,-425.5"/>
<image xlink:href="pics/dede.png" width="38.8421px" height="41px" preserveAspectRatio="xMinYMin meet" x="18.7039" y="-424.5"/>
<text text-anchor="start" x="102" y="-411.2" font-family="Helvetica, Arial, sans-serif" font-size="14.00" fill="#ffffff"> DeDe</text>
<text text-anchor="start" x="59.62" y="-397.1" font-family="Helvetica, Arial, sans-serif" font-size="12.00" fill="#666666">Pritchett (neé Williams)</text>
<text text-anchor="start" x="59.12" y="-385.25" font-family="Helvetica, Arial, sans-serif" font-size="10.00" fill="#aa7777"> * 1948&#45;01&#45;23 </text>
<text text-anchor="start" x="120.88" y="-385.25" font-family="Helvetica, Arial, sans-serif" font-size="10.00" fill="#aa7777"> † 2018&#45;10&#45;31 </text>
</a>
</g>
</g>
<!-- Dede&#45;&gt;union_3 -->
<g id="edge20" class="edge">
<title>Dede&#45;&gt;union_3</title>
<path fill="none" stroke="#9b59b6" d="M184.33,-404C196.77,-404 207.28,-404 212.84,-404"/>
</g>
<!-- siblings_3&#45;&gt;Claire -->
<g id="edge22" class="edge">
<title>siblings_3:se&#45;&gt;Claire</title>
<path fill="none" stroke="#9b59b6" d="M255.41,-405.2C255.41,-405.2 275.75,-405.2 275.75,-405.2"/>
<polygon fill="#9b59b6" stroke="#9b59b6" points="283.75,-395.2 283.75,-415.2 279.75,-415.2 279.75,-395.2 283.75,-395.2"/>
<polyline fill="none" stroke="#9b59b6" points="285.75,-405.2 275.75,-405.2"/>
</g>
<!-- siblings_3&#45;&gt;Mitchell -->
<g id="edge23" class="edge">
<title>siblings_3:se&#45;&gt;Mitchell</title>
<path fill="none" stroke="#9b59b6" d="M255.41,-402.8C255.41,-402.8 271.87,-402.8 271.87,-402.8 271.87,-402.8 271.87,-214 271.87,-214 271.87,-214 276.14,-214 276.14,-214"/>
<polygon fill="#9b59b6" stroke="#9b59b6" points="284.14,-204 284.14,-224 280.14,-224 280.14,-204 284.14,-204"/>
<polyline fill="none" stroke="#9b59b6" points="286.14,-214 276.14,-214"/>
</g>
<!-- union_4 -->
<g id="node25" class="node">
<title>union_4</title>
<ellipse fill="#34495e" stroke="white" cx="217.08" cy="-343" rx="3.96" ry="3.96"/>
</g>
<!-- siblings_4 -->
<g id="node28" class="node">
<title>siblings_4</title>
<polygon fill="#34495e" stroke="#ffffff" stroke-width="0" points="250.04,-343 255.44,-339.4 255.44,-346.6 250.04,-343"/>
</g>
<!-- union_4&#45;&gt;siblings_4 -->
<g id="edge26" class="edge">
<title>union_4&#45;&gt;siblings_4</title>
<path fill="none" stroke="#34495e" d="M221.28,-343C228.63,-343 243.7,-343 250.36,-343"/>
</g>
<!-- Frank -->
<g id="node26" class="node">
<title>Frank</title>
<g id="a_node26"><a xlink:href="https://modernfamily.fandom.com/wiki/Frank_Dunphy" xlink:title="&lt;TABLE&gt;">
<polygon fill="#016d3e" stroke="#ffffff" points="182.62,-303.5 18.62,-303.5 18.62,-260.5 182.62,-260.5 182.62,-303.5"/>
<image xlink:href="pics/frank.png" width="38.8421px" height="41px" preserveAspectRatio="xMinYMin meet" x="20.2039" y="-302.5"/>
<text text-anchor="start" x="102" y="-289.2" font-family="Helvetica, Arial, sans-serif" font-size="14.00" fill="#ffffff"> Frank</text>
<text text-anchor="start" x="100.12" y="-275.1" font-family="Helvetica, Arial, sans-serif" font-size="12.00" fill="#666666">Dunphy</text>
<text text-anchor="start" x="60.62" y="-263.25" font-family="Helvetica, Arial, sans-serif" font-size="10.00" fill="#aa7777"> &#160;</text>
<text text-anchor="start" x="121.62" y="-263.25" font-family="Helvetica, Arial, sans-serif" font-size="10.00" fill="#aa7777"> † 2019 </text>
</a>
</g>
</g>
<!-- Frank&#45;&gt;union_4 -->
<g id="edge24" class="edge">
<title>Frank&#45;&gt;union_4</title>
<path fill="none" stroke="#34495e" d="M182.93,-296.5C202.02,-296.5 216.87,-296.5 216.87,-296.5 216.87,-296.5 216.87,-327.2 216.87,-338.71"/>
</g>
<!-- Grace -->
<g id="node27" class="node">
<title>Grace</title>
<g id="a_node27"><a xlink:href="https://modernfamily.fandom.com/wiki/Grace_Dunphy" xlink:title="&lt;TABLE&gt;">
<polygon fill="#016d3e" stroke="#ffffff" points="182.62,-364.5 18.62,-364.5 18.62,-321.5 182.62,-321.5 182.62,-364.5"/>
<image xlink:href="pics/barb.png" width="38.8421px" height="41px" preserveAspectRatio="xMinYMin meet" x="20.2039" y="-363.5"/>
<text text-anchor="start" x="100.5" y="-350.2" font-family="Helvetica, Arial, sans-serif" font-size="14.00" fill="#ffffff"> Grace</text>
<text text-anchor="start" x="100.12" y="-336.1" font-family="Helvetica, Arial, sans-serif" font-size="12.00" fill="#666666">Dunphy</text>
<text text-anchor="start" x="60.62" y="-324.25" font-family="Helvetica, Arial, sans-serif" font-size="10.00" fill="#aa7777"> &#160;</text>
<text text-anchor="start" x="121.62" y="-324.25" font-family="Helvetica, Arial, sans-serif" font-size="10.00" fill="#aa7777"> † 2013 </text>
</a>
</g>
</g>
<!-- Grace&#45;&gt;union_4 -->
<g id="edge25" class="edge">
<title>Grace&#45;&gt;union_4</title>
<path fill="none" stroke="#34495e" d="M183.09,-343C195.93,-343 206.86,-343 212.66,-343"/>
</g>
<!-- siblings_4&#45;&gt;Phil -->
<g id="edge27" class="edge">
<title>siblings_4:se&#45;&gt;Phil</title>
<path fill="none" stroke="#34495e" d="M255.41,-343C255.41,-343 275.75,-343 275.75,-343"/>
<polygon fill="#34495e" stroke="#34495e" points="283.75,-333 283.75,-353 279.75,-353 279.75,-333 283.75,-333"/>
<polyline fill="none" stroke="#34495e" points="285.75,-343 275.75,-343"/>
</g>
<!-- union_5 -->
<g id="node29" class="node">
<title>union_5</title>
<ellipse fill="#f1c40f" stroke="white" cx="217.08" cy="-90" rx="3.96" ry="3.96"/>
</g>
<!-- siblings_5 -->
<g id="node32" class="node">
<title>siblings_5</title>
<polygon fill="#f1c40f" stroke="#ffffff" stroke-width="0" points="250.04,-90 255.44,-86.4 255.44,-93.6 250.04,-90"/>
</g>
<!-- union_5&#45;&gt;siblings_5 -->
<g id="edge30" class="edge">
<title>union_5&#45;&gt;siblings_5</title>
<path fill="none" stroke="#f1c40f" d="M221.28,-90C228.63,-90 243.7,-90 250.36,-90"/>
</g>
<!-- Barb -->
<g id="node30" class="node">
<title>Barb</title>
<g id="a_node30"><a xlink:href="https://modernfamily.fandom.com/wiki/Barb_Tucker" xlink:title="&lt;TABLE&gt;">
<polygon fill="#016d3e" stroke="#ffffff" points="182.62,-51.5 18.62,-51.5 18.62,-8.5 182.62,-8.5 182.62,-51.5"/>
<image xlink:href="pics/barb.png" width="38.8421px" height="41px" preserveAspectRatio="xMinYMin meet" x="20.2039" y="-50.5"/>
<text text-anchor="start" x="105" y="-37.2" font-family="Helvetica, Arial, sans-serif" font-size="14.00" fill="#ffffff"> Barb</text>
<text text-anchor="start" x="103.12" y="-23.1" font-family="Helvetica, Arial, sans-serif" font-size="12.00" fill="#666666">Tucker</text>
<text text-anchor="start" x="60.62" y="-11.25" font-family="Helvetica, Arial, sans-serif" font-size="10.00" fill="#aa7777"> &#160;</text>
<text text-anchor="start" x="121.62" y="-11.25" font-family="Helvetica, Arial, sans-serif" font-size="10.00" fill="#aa7777"> &#160;</text>
</a>
</g>
</g>
<!-- Barb&#45;&gt;union_5 -->
<g id="edge28" class="edge">
<title>Barb&#45;&gt;union_5</title>
<path fill="none" stroke="#f1c40f" d="M182.93,-30C202.02,-30 216.87,-30 216.87,-30 216.87,-30 216.87,-71.93 216.87,-85.68"/>
</g>
<!-- Merle -->
<g id="node31" class="node">
<title>Merle</title>
<g id="a_node31"><a xlink:href="https://modernfamily.fandom.com/wiki/Merle_Tucker" xlink:title="&lt;TABLE&gt;">
<polygon fill="#016d3e" stroke="#ffffff" points="182.62,-112.5 18.62,-112.5 18.62,-69.5 182.62,-69.5 182.62,-112.5"/>
<image xlink:href="pics/merle.png" width="38.8421px" height="41px" preserveAspectRatio="xMinYMin meet" x="20.2039" y="-111.5"/>
<text text-anchor="start" x="102" y="-98.2" font-family="Helvetica, Arial, sans-serif" font-size="14.00" fill="#ffffff"> Merle</text>
<text text-anchor="start" x="103.12" y="-84.1" font-family="Helvetica, Arial, sans-serif" font-size="12.00" fill="#666666">Tucker</text>
<text text-anchor="start" x="60.62" y="-72.25" font-family="Helvetica, Arial, sans-serif" font-size="10.00" fill="#aa7777"> &#160;</text>
<text text-anchor="start" x="121.62" y="-72.25" font-family="Helvetica, Arial, sans-serif" font-size="10.00" fill="#aa7777"> &#160;</text>
</a>
</g>
</g>
<!-- Merle&#45;&gt;union_5 -->
<g id="edge29" class="edge">
<title>Merle&#45;&gt;union_5</title>
<path fill="none" stroke="#f1c40f" d="M183.09,-90C195.93,-90 206.86,-90 212.66,-90"/>
</g>
<!-- siblings_5&#45;&gt;Cam -->
<g id="edge31" class="edge">
<title>siblings_5:se&#45;&gt;Cam</title>
<path fill="none" stroke="#f1c40f" d="M253.87,-88.23C253.87,-88.23 253.87,-153 253.87,-153 253.87,-153 275.83,-153 275.83,-153"/>
<polygon fill="#f1c40f" stroke="#f1c40f" points="283.83,-143 283.83,-163 279.83,-163 279.83,-143 283.83,-143"/>
<polyline fill="none" stroke="#f1c40f" points="285.83,-153 275.83,-153"/>
</g>
<!-- Pam -->
<g id="node33" class="node">
<title>Pam</title>
<g id="a_node33"><a xlink:href="https://modernfamily.fandom.com/wiki/Pam_Tucker" xlink:title="&lt;TABLE&gt;">
<polygon fill="#016d3e" stroke="#ffffff" points="451,-110.5 286.25,-110.5 286.25,-67.5 451,-67.5 451,-110.5"/>
<image xlink:href="pics/pam.png" width="38.8421px" height="41px" preserveAspectRatio="xMinYMin meet" x="287.824" y="-109.5"/>
<text text-anchor="start" x="373" y="-96.2" font-family="Helvetica, Arial, sans-serif" font-size="14.00" fill="#ffffff"> Pam</text>
<text text-anchor="start" x="371.12" y="-82.1" font-family="Helvetica, Arial, sans-serif" font-size="12.00" fill="#666666">Tucker</text>
<text text-anchor="start" x="328.25" y="-70.25" font-family="Helvetica, Arial, sans-serif" font-size="10.00" fill="#aa7777"> * 1970&#45;12&#45;18 </text>
<text text-anchor="start" x="390" y="-70.25" font-family="Helvetica, Arial, sans-serif" font-size="10.00" fill="#aa7777"> &#160;</text>
</a>
</g>
</g>
<!-- siblings_5&#45;&gt;Pam -->
<g id="edge32" class="edge">
<title>siblings_5:se&#45;&gt;Pam</title>
<path fill="none" stroke="#f1c40f" d="M255.41,-90C255.41,-90 275.75,-90 275.75,-90"/>
<polygon fill="#f1c40f" stroke="#f1c40f" points="283.75,-80 283.75,-100 279.75,-100 279.75,-80 283.75,-80"/>
<polyline fill="none" stroke="#f1c40f" points="285.75,-90 275.75,-90"/>
</g>
</g>
</svg>
